HIERARCHY
ROOT Hips
{
     OFFSET 14.74250 94.73400 -33.15170
     CHANNELS 6 Xposition Yposition Zposition Zrotation Xrotation Yrotation
     JOINT Spine
     {
          OFFSET 0.00000 11.89050 0.00000
          CHANNELS 3 Zrotation Xrotation Yrotation
          JOINT Spine1
          {
               OFFSET -0.00000 25.65740 0.12766
               CHANNELS 3 Zrotation Xrotation Yrotation
               JOINT HEad
               {
                    OFFSET -0.00000 8.73416 0.01134
                    CHANNELS 3 Zrotation Xrotation Yrotation
                    End Site
                    {
                         OFFSET -0.29000 12.77420 2.51395
                    }
               }
               JOINT LeftShoulder1
               {
                    OFFSET 8.99000 -0.36225 -0.22000
                    CHANNELS 3 Zrotation Xrotation Yrotation
                    JOINT LeftArm
                    {
                         OFFSET 10.28270 -0.00338 0.32212
                         CHANNELS 3 Zrotation Xrotation Yrotation
                         JOINT LeftForeArm
                         {
                              OFFSET 32.76690 0.09914 -1.42434
                              CHANNELS 3 Zrotation Xrotation Yrotation
                              JOINT LeftHand
                              {
                                   OFFSET 27.56430 0.08536 1.02216
                                   CHANNELS 3 Zrotation Xrotation Yrotation
                                   End Site
                                   {
                                        OFFSET 16.74430 -0.60000 1.50291
                                   }
                              }
                         }
                    }
               }
               JOINT RightShoulder
               {
                    OFFSET -8.99000 -0.36225 -0.22000
                    CHANNELS 3 Zrotation Xrotation Yrotation
                    JOINT RightArm
                    {
                         OFFSET -10.28270 -0.00338 0.32212
                         CHANNELS 3 Zrotation Xrotation Yrotation
                         JOINT RightForeArm
                         {
                              OFFSET -32.89710 0.09914 -1.42434
                              CHANNELS 3 Zrotation Xrotation Yrotation
                              JOINT RightHand
                              {
                                   OFFSET -27.49210 0.08536 1.02216
                                   CHANNELS 3 Zrotation Xrotation Yrotation
                                   End Site
                                   {
                                        OFFSET -16.63120 -0.60000 1.50291
                                   }
                              }
                         }
                    }
               }
          }
     }
     JOINT LeftUpLeg
     {
          OFFSET 8.94580 -8.66707 0.10165
          CHANNELS 3 Zrotation Xrotation Yrotation
          JOINT LeftLeg
          {
               OFFSET -0.00000 -44.42270 1.37270
               CHANNELS 3 Zrotation Xrotation Yrotation
               JOINT LeftFoot
               {
                    OFFSET -0.25355 -42.09240 -1.46059
                    CHANNELS 3 Zrotation Xrotation Yrotation
                    JOINT LeftToes
                    {
                         OFFSET -0.04000 -4.41509 8.49910
                         CHANNELS 3 Zrotation Xrotation Yrotation
                         End Site
                         {
                              OFFSET 0.08000 -0.04745 9.77979
                         }
                    }
               }
          }
     }
     JOINT RightUpLeg
     {
          OFFSET -8.94580 -8.66707 0.10165
          CHANNELS 3 Zrotation Xrotation Yrotation
          JOINT RightLeg
          {
               OFFSET 0.00000 -44.42270 1.37270
               CHANNELS 3 Zrotation Xrotation Yrotation
               JOINT RightFoot
               {
                    OFFSET 0.25355 -42.09240 -1.46059
                    CHANNELS 3 Zrotation Xrotation Yrotation
                    JOINT RightToes
                    {
                         OFFSET 0.04000 -4.41509 8.49910
                         CHANNELS 3 Zrotation Xrotation Yrotation
                         End Site
                         {
                              OFFSET -0.08000 -0.13745 9.77979
                         }
                    }
               }
          }
     }
}
MOTION
Frames: 20
Frame Time: 0.01667
24.04730 83.91390 -5.18185 9.99292 -15.23060 25.63120 -0.81140 16.45430 6.22468 -5.72358 32.00420 23.87380 12.21280 -5.65461 -49.37460 -0.00000 0.00000 -0.00000 -124.22100 -36.41010 -101.76700 -70.37650 53.77050 -64.59020 10.90490 7.87899 -18.31280 -15.01310 -1.74182 19.39390 55.65420 -15.03890 82.40460 12.23600 10.59450 74.01050 43.34940 15.00810 8.54043 -8.23633 -28.11620 -16.97150 -19.37080 34.66190 51.29070 5.17433 29.39870 -1.86917 -7.18119 -38.36050 -91.00390 -35.79820 23.96950 14.06070 55.18450 36.89720 -43.37920 -25.08220 10.16860 3.89964 15.36020 -63.96190 17.38910 
23.66940 83.82190 -4.85822 10.20970 -15.01950 26.51260 -0.99141 16.63570 6.46891 -6.03628 32.26660 24.46960 12.89960 -6.05259 -48.19370 -0.00000 0.00000 -0.00000 -124.12300 -36.33160 -102.15500 -70.98390 53.76160 -62.86190 10.76930 7.90921 -18.27830 -14.97270 -1.78438 19.94820 57.60590 -11.95770 84.80090 12.88760 16.53440 78.53330 42.00050 15.20100 9.48717 -8.45777 -28.37510 -17.33910 -19.65190 35.11960 51.20120 5.07710 29.31620 -1.83337 -7.41963 -38.58110 -91.27100 -35.48550 24.39490 13.37600 55.49100 36.96440 -44.33200 -25.46310 9.91839 3.90407 15.84660 -63.79920 18.38890 
23.43650 83.77630 -4.60385 10.22760 -14.93050 26.99190 -1.14459 16.81600 6.57353 -6.33284 32.54230 24.75140 13.21420 -5.58670 -46.18310 -0.00000 0.00000 -0.00000 -123.77700 -37.21990 -102.78300 -70.50260 53.87570 -62.72760 10.75760 7.91412 -18.24990 -14.30620 -1.66608 20.07340 59.48150 -9.10950 85.29380 12.81040 20.66340 82.13530 40.99020 15.20600 9.86418 -8.30772 -28.55460 -17.35510 -20.00380 35.43260 51.17600 5.12115 29.08990 -1.83582 -7.67959 -38.83160 -91.51750 -35.20270 24.51880 13.03300 55.63910 37.04670 -44.88630 -25.74850 10.13920 4.00150 17.00430 -63.92570 20.39830 
23.35720 83.77260 -4.45162 10.03600 -14.98420 26.97820 -1.28492 16.98190 6.54840 -6.63285 32.80260 24.75790 13.12420 -4.57397 -44.07680 -0.00000 0.00000 -0.00000 -123.29500 -38.68300 -103.41500 -69.27110 54.11480 -63.74000 11.00090 7.86947 -18.20870 -13.05860 -1.40283 19.78810 61.73040 -7.04822 84.15380 12.87560 23.22510 84.62050 40.52540 14.96730 9.39153 -7.78499 -28.66400 -17.10290 -20.44000 35.59000 51.30340 5.22947 28.70870 -1.85042 -7.86269 -39.01180 -91.67240 -35.00190 24.32290 13.05930 55.68420 37.16580 -45.03080 -25.87050 10.60150 4.12971 18.77860 -64.14410 23.40670 
23.42930 83.80800 -4.41718 9.62420 -15.16070 26.44880 -1.41653 17.11240 6.39292 -6.93769 33.00510 24.49910 12.73010 -3.36671 -42.30080 -0.00000 0.00000 -0.00000 -122.66000 -40.25880 -103.74000 -67.58840 54.40690 -65.41860 11.58550 7.75636 -18.17570 -11.18170 -1.00697 19.13270 64.40280 -6.20887 81.75900 13.27620 24.65870 85.93340 40.28480 14.54270 8.32237 -6.92031 -28.72890 -16.74100 -20.99830 35.55270 51.73360 5.35225 28.25890 -1.86516 -7.92347 -39.07880 -91.69900 -34.89870 23.82470 13.34350 55.66630 37.33230 -44.82830 -25.86150 11.21150 4.27109 21.04890 -64.37200 27.20790 
23.64520 83.87860 -4.50698 8.98541 -15.43040 25.42070 -1.53868 17.19180 6.09542 -7.23068 33.11960 23.94790 12.21160 -2.19550 -40.85890 -0.00000 0.00000 -0.00000 -121.88500 -41.57470 -103.56200 -65.83650 54.72930 -67.18500 12.49340 7.57342 -18.19680 -8.65934 -0.51057 18.23690 67.06640 -6.78797 78.58850 13.41660 25.29060 86.37790 39.73230 14.10580 7.30119 -5.75633 -28.76970 -16.45900 -21.73170 35.26820 52.64940 5.49912 27.83780 -1.88801 -7.86827 -39.04680 -91.57800 -34.87790 23.05230 13.68670 55.58420 37.58970 -44.38490 -25.77720 11.99830 4.44026 23.63280 -64.65500 31.38990 
23.99380 83.98030 -4.71959 8.11917 -15.74790 23.91860 -1.65028 17.21670 5.63741 -7.48759 33.13470 23.05210 11.71400 -1.20677 -39.44780 -0.00000 0.00000 -0.00000 -121.05500 -42.45550 -102.88900 -64.43270 55.11070 -68.48510 13.54550 7.35206 -18.29430 -5.62542 0.03107 17.26980 69.10140 -8.56366 75.19860 12.69120 25.39070 86.44990 38.65440 13.78650 6.73565 -4.35842 -28.80840 -16.38830 -22.61350 34.70970 54.14830 5.71751 27.51270 -1.93721 -7.75585 -38.98340 -91.32430 -34.91220 21.99960 13.89460 55.42900 38.01710 -43.78990 -25.62600 12.98250 4.64167 26.20250 -64.98430 35.36640 
24.46050 84.11060 -5.04639 7.01277 -16.05130 21.94710 -1.75125 17.20160 5.00919 -7.67887 33.06460 21.77160 11.27890 -0.51184 -37.67450 -0.00000 0.00000 -0.00000 -120.37100 -42.91780 -101.96700 -63.64810 55.59720 -68.94800 14.44870 7.15471 -18.42120 -2.38049 0.55287 16.27640 70.18380 -10.86230 72.13590 11.25650 25.26550 86.51710 37.32380 13.56110 6.48568 -2.79499 -28.88730 -16.46950 -23.45050 33.95660 56.09150 6.02600 27.30800 -2.01984 -7.67266 -38.97980 -90.98960 -34.96510 20.61360 13.87580 55.23560 38.65940 -43.09970 -25.39360 14.12760 4.86152 28.23640 -65.19750 38.47010 
25.02460 84.26590 -5.47475 5.63974 -16.29250 19.50040 -1.84460 17.18540 4.21761 -7.77001 32.96670 20.09850 10.86630 -0.15696 -35.24650 -0.00000 0.00000 -0.00000 -120.09700 -43.08510 -101.22000 -63.52000 56.18670 -68.42710 14.95380 7.04664 -18.46560 0.68735 0.98342 15.13350 70.55350 -12.86430 69.85540 9.81358 25.19930 86.73690 36.10920 13.39250 6.35149 -1.08862 -29.05270 -16.47740 -23.99920 33.20110 58.14830 6.36517 27.19230 -2.11630 -7.64190 -39.05900 -90.59700 -34.98580 18.85410 13.66910 55.08120 39.47160 -42.37490 -25.08850 15.38090 5.08626 29.13980 -65.08210 40.06440 
25.66120 84.43590 -5.98818 3.98170 -16.44810 16.59740 -1.93896 17.21470 3.27293 -7.73167 32.92000 18.03460 10.40220 -0.06639 -32.02810 -0.00000 0.00000 -0.00000 -120.28800 -43.13110 -101.00700 -63.86300 56.72360 -67.03280 14.98560 7.05643 -18.34000 3.24112 1.26340 13.75060 70.81500 -14.02810 68.62990 8.96330 25.35820 87.13370 35.08090 13.32090 6.45241 0.80818 -29.33060 -16.23900 -24.20580 32.61800 60.04850 6.60988 27.08730 -2.18409 -7.55940 -39.11360 -90.07150 -34.92110 16.75750 13.35850 55.04010 40.34750 -41.71090 -24.77740 16.68230 5.31400 28.46770 -64.53210 39.60350 
26.34790 84.59780 -6.56458 2.05347 -16.50150 13.30850 -2.04639 17.30370 2.18301 -7.54600 32.95430 15.57760 9.79819 -0.05723 -28.00230 -0.00000 0.00000 -0.00000 -120.85100 -43.29990 -101.52700 -64.65010 56.98400 -64.82020 14.63720 7.15671 -18.10220 5.16729 1.39282 12.25360 71.46880 -14.28180 68.42570 8.96098 25.78360 87.66620 34.06770 13.37420 6.95820 2.97657 -29.72280 -15.77430 -24.27210 32.25710 61.75150 6.65403 26.90020 -2.18527 -7.28355 -39.00330 -89.27250 -34.75650 14.45630 12.97760 55.15590 41.16810 -41.29180 -24.64940 17.92570 5.56465 26.18130 -63.61950 36.81690 
27.06990 84.71880 -7.17813 -0.08462 -16.44940 9.75068 -2.17752 17.42150 0.97995 -7.21329 33.02820 12.77930 8.99579 0.03553 -23.27880 -0.00000 0.00000 -0.00000 -121.81400 -43.84170 -102.86700 -66.17740 56.87630 -61.63140 14.08550 7.28959 -17.91310 6.65206 1.43528 10.87720 72.62420 -13.91490 68.91880 9.69062 26.44970 88.32210 32.90840 13.50310 7.80170 5.46837 -30.19040 -15.22000 -24.49400 32.06380 63.40500 6.51333 26.55820 -2.12079 -6.79632 -38.71130 -88.13630 -34.54540 12.16930 12.50590 55.43090 41.81170 -41.46450 -25.03380 18.96050 5.89050 22.79790 -62.55590 32.05570 
27.81670 84.77650 -7.80191 -2.33654 -16.31460 6.03551 -2.33577 17.52530 -0.25361 -6.76967 33.08510 9.81831 8.01618 0.24348 -18.14920 -0.00000 0.00000 -0.00000 -123.03500 -44.80040 -104.81100 -68.27490 56.42200 -57.84070 13.51480 7.40969 -17.84880 7.99079 1.45444 9.73590 74.12950 -13.32580 69.71340 10.68820 27.29960 89.17730 31.55420 13.62900 8.77716 8.27206 -30.63060 -14.65240 -25.04140 31.94350 65.18160 6.32519 26.04620 -2.03254 -6.23402 -38.35990 -86.79850 -34.38140 10.12570 11.93640 55.80800 42.19610 -42.67270 -26.23220 19.55270 6.32391 19.03060 -61.45670 26.20500 
28.57200 84.78280 -8.40856 -4.59764 -16.12970 2.19173 -2.50910 17.59050 -1.39557 -6.29424 33.10460 6.98929 6.94492 0.47110 -13.07110 -0.00000 0.00000 -0.00000 -124.07400 -46.00340 -106.83400 -70.14530 55.74330 -54.46070 13.06730 7.49438 -17.87840 9.33588 1.46834 8.75902 75.82040 -12.78700 70.56300 11.43910 28.23820 90.29660 30.05460 13.70450 9.72087 11.33250 -30.87970 -13.97180 -25.85010 31.80650 67.13050 6.24013 25.43610 -1.96994 -5.77994 -38.10840 -85.54780 -34.32470 8.44045 11.34970 56.14760 42.35390 -45.11990 -28.22650 19.33700 6.76755 15.33360 -59.98710 20.26310 
29.30860 84.78230 -8.97367 -6.78864 -15.91090 -1.84675 -2.67238 17.60920 -2.32074 -5.88010 33.09620 4.60162 5.87545 0.61409 -8.51007 -0.00000 0.00000 -0.00000 -124.81000 -47.24940 -108.56600 -71.37940 55.14200 -52.07180 12.79330 7.53800 -17.97280 10.70500 1.46482 7.80699 77.57040 -12.36960 71.40830 11.84610 29.15150 91.56700 28.58050 13.71740 10.50330 14.58940 -30.75450 -12.99830 -26.72290 31.58050 69.18590 6.30737 24.85040 -1.95305 -5.53568 -38.04170 -84.62140 -34.35520 7.07890 10.95050 56.24410 42.36690 -48.31910 -30.51360 18.14760 7.00918 12.08130 -57.57010 15.24400 
29.99190 84.81700 -9.48257 -8.85351 -15.64180 -6.12776 -2.81151 17.58090 -2.94711 -5.58155 33.06990 2.83675 4.83243 0.68349 -4.72723 -0.00000 0.00000 -0.00000 -125.59600 -48.37480 -110.00200 -72.12150 54.95460 -50.60720 12.65080 7.55265 -18.09810 12.06100 1.43150 6.81507 79.28490 -12.03860 72.25200 12.22960 29.98270 92.74830 27.36420 13.68360 11.02920 17.94760 -30.14330 -11.71310 -27.52100 31.20810 71.26480 6.44117 24.36180 -1.96021 -5.44615 -38.09700 -84.01360 -34.41580 5.96612 10.99980 55.90300 42.17760 -51.07550 -32.35940 16.55820 6.98604 9.70174 -54.33850 11.90240 
30.57550 84.89480 -9.93906 -10.72500 -15.29140 -10.56520 -2.94059 17.51350 -3.26957 -5.38789 33.02730 1.66648 3.73912 0.79179 -1.70673 -0.00000 0.00000 -0.00000 -126.67300 -49.26210 -111.19800 -72.40280 55.29590 -50.02530 12.56660 7.55982 -18.18750 13.29410 1.36815 5.83509 80.94620 -11.75640 73.06540 12.82730 30.75300 93.71610 26.51920 13.63440 11.31360 21.23860 -29.07470 -10.34880 -28.24200 30.64370 73.28000 6.49810 23.92990 -1.94868 -5.31679 -38.08570 -83.43490 -34.47600 5.10341 11.67450 55.01030 41.56680 -52.16490 -33.29900 15.67300 6.93186 8.30725 -51.47860 10.13330 
31.00140 84.99750 -10.37350 -12.32840 -14.85430 -14.97570 -3.08718 17.42040 -3.34334 -5.25791 32.96980 0.92788 2.50348 1.03831 0.73744 -0.00000 0.00000 -0.00000 -127.99900 -49.88500 -112.13400 -72.12560 56.01820 -50.37180 12.50330 7.57251 -18.18690 14.27470 1.28931 4.97772 82.58530 -11.49220 73.79750 13.51920 31.48850 94.55220 25.99670 13.59330 11.45280 24.28350 -27.67240 -9.21299 -28.93480 29.84340 75.09790 6.37541 23.46110 -1.88557 -4.91332 -37.78300 -82.47560 -34.51660 4.55413 12.97610 53.54370 40.36070 -51.01690 -33.26100 16.17050 7.07443 7.63081 -50.22520 9.04163 
31.21780 85.11060 -10.83980 -13.62360 -14.35040 -19.19610 -3.26109 17.30820 -3.23769 -5.17087 32.89090 0.46591 1.11931 1.44304 2.80590 -0.00000 0.00000 -0.00000 -129.53799 -50.31880 -112.86700 -71.43820 56.87980 -51.42650 12.49480 7.58475 -18.08770 14.95140 1.22019 4.35165 84.19910 -11.22240 74.38060 14.02650 32.16810 95.40860 25.67400 13.57020 11.55090 26.98460 -26.05530 -8.49474 -29.57710 28.73790 76.57860 6.05075 22.92340 -1.76538 -4.08016 -36.99740 -80.86710 -34.48000 4.35174 14.72260 51.55830 38.60340 -47.80450 -32.36640 17.71310 7.32891 7.20266 -50.91180 7.46278 
31.20330 85.23660 -11.39700 -14.62760 -13.79310 -23.13790 -3.43141 17.16830 -3.01004 -5.13462 32.76890 0.19830 -0.32820 1.96103 4.62960 -0.00000 0.00000 -0.00000 -131.30800 -50.68710 -113.52600 -70.65740 57.68800 -52.77740 12.60320 7.58140 -17.91800 15.36090 1.18467 4.02815 85.71500 -10.94260 74.72990 14.23090 32.74580 96.34020 25.43190 13.56240 11.66700 29.34510 -24.28290 -8.27725 -30.07640 27.20050 77.67320 5.57591 22.37280 -1.60828 -2.78383 -35.58040 -78.57240 -34.28740 4.45470 16.62540 49.19840 36.50780 -43.23910 -30.86620 19.20990 7.39380 6.48307 -53.05290 4.52194 
